<svg width="21" height="15" viewBox="0 0 21 15" fill="none" xmlns="http://www.w3.org/2000/svg">
<path d="M20.1855 3.01367C19.9629 2.12305 19.2578 1.41797 18.4043 1.19531C16.8086 0.75 10.5 0.75 10.5 0.75C10.5 0.75 4.1543 0.75 2.55859 1.19531C1.70508 1.41797 1 2.12305 0.777344 3.01367C0.332031 4.57227 0.332031 7.91211 0.332031 7.91211C0.332031 7.91211 0.332031 11.2148 0.777344 12.8105C1 13.7012 1.70508 14.3691 2.55859 14.5918C4.1543 15 10.5 15 10.5 15C10.5 15 16.8086 15 18.4043 14.5918C19.2578 14.3691 19.9629 13.7012 20.1855 12.8105C20.6309 11.2148 20.6309 7.91211 20.6309 7.91211C20.6309 7.91211 20.6309 4.57227 20.1855 3.01367ZM8.42188 10.918V4.90625L13.6914 7.91211L8.42188 10.918Z" fill="#292F36"/>
</svg>
