<svg width="22" height="23" viewBox="0 0 22 23" fill="none" xmlns="http://www.w3.org/2000/svg">
<path d="M20.97 17.7919C20.97 18.1519 20.89 18.5219 20.72 18.8819C20.55 19.2419 20.33 19.5819 20.04 19.9019C19.55 20.4419 19.01 20.8319 18.4 21.0819C17.8 21.3319 17.15 21.4619 16.45 21.4619C15.43 21.4619 14.34 21.2219 13.19 20.7319C12.04 20.2419 10.89 19.5819 9.75 18.7519C8.6 17.9119 7.51 16.9819 6.47 15.9519C5.44 14.9119 4.51 13.8219 3.68 12.6819C2.86 11.5419 2.2 10.4019 1.72 9.27191C1.24 8.13191 1 7.04191 1 6.00191C1 5.32191 1.12 4.67191 1.36 4.07191C1.6 3.46191 1.98 2.90191 2.51 2.40191C3.15 1.77191 3.85 1.46191 4.59 1.46191C4.87 1.46191 5.15 1.52191 5.4 1.64191C5.66 1.76191 5.89 1.94191 6.07 2.20191L8.39 5.47191C8.57 5.72191 8.7 5.95191 8.79 6.17191C8.88 6.38191 8.93 6.59191 8.93 6.78191C8.93 7.02191 8.86 7.26191 8.72 7.49191C8.59 7.72191 8.4 7.96191 8.16 8.20191L7.4 8.99191C7.29 9.10191 7.24 9.23191 7.24 9.39191C7.24 9.47191 7.25 9.54191 7.27 9.62191C7.3 9.70191 7.33 9.76191 7.35 9.82191C7.53 10.1519 7.84 10.5819 8.28 11.1019C8.73 11.6219 9.21 12.1519 9.73 12.6819C10.27 13.2119 10.79 13.7019 11.32 14.1519C11.84 14.5919 12.27 14.8919 12.61 15.0719C12.66 15.0919 12.72 15.1219 12.79 15.1519C12.87 15.1819 12.95 15.1919 13.04 15.1919C13.21 15.1919 13.34 15.1319 13.45 15.0219L14.21 14.2719C14.46 14.0219 14.7 13.8319 14.93 13.7119C15.16 13.5719 15.39 13.5019 15.64 13.5019C15.83 13.5019 16.03 13.5419 16.25 13.6319C16.47 13.7219 16.7 13.8519 16.95 14.0219L20.26 16.3719C20.52 16.5519 20.7 16.7619 20.81 17.0119C20.91 17.2619 20.97 17.5119 20.97 17.7919Z" stroke="#292D32" stroke-width="1.5" stroke-miterlimit="10"/>
</svg>
