<svg width="147" height="57" viewBox="0 0 147 57" fill="none" xmlns="http://www.w3.org/2000/svg">
<path d="M34.8089 41.1754C34.8089 41.1754 31.2865 44.6978 25.2669 44.5837C19.2457 44.4696 16.2921 41.5161 16.2921 41.5161L12.6572 43.1069L14.2464 40.6081C14.2464 40.6081 14.5871 39.472 14.3605 39.1297C14.134 38.7891 12.6572 37.4264 11.9742 34.3587C11.2929 31.2927 11.7477 27.6562 12.7697 25.1574C13.7917 22.6586 14.0199 22.5445 14.0199 22.5445L11.9742 18.2282L15.8373 20.5005C15.8373 20.5005 18.1095 18.1141 21.971 17.2046C25.8341 16.2967 30.2645 17.8876 30.2645 17.8876C30.2645 17.8876 32.6508 18.6814 34.1276 19.9316C34.1276 19.9316 30.6051 18.4548 27.8798 18.4548C24.1308 18.5689 22.3133 19.2502 19.927 20.8411C13.9156 24.8477 13.6531 34.3636 18.6784 39.2455C19.5798 40.1208 20.6067 40.8673 21.7444 41.402C25.1528 43.1069 30.4927 42.6522 30.6051 42.5381C30.4927 42.6522 32.8773 42.4256 34.8089 41.1754Z" fill="#009245"/>
<path d="M22.7676 15.5012C22.7676 15.5012 24.0178 11.2975 24.585 7.32188C25.1539 3.34631 25.4946 0.16455 25.4946 0.16455C25.4946 0.16455 26.0618 5.61853 26.29 7.32188C26.6307 9.02523 27.6527 14.5917 28.2199 15.3871H26.1759C26.1759 15.3871 25.8352 14.7058 25.4946 12.5477L24.8132 15.3871L22.7676 15.5012Z" fill="#009245"/>
<path d="M10.6101 28.111C10.6101 28.111 9.92873 30.7239 10.6101 33.4509C10.6101 33.4509 7.88308 31.9741 0.613281 30.7239C0.613281 30.838 9.01919 29.2472 10.6101 28.111Z" fill="#009245"/>
<path d="M22.7676 45.8332C22.7676 45.8332 24.8132 49.9229 25.7211 56.1707C25.7211 56.1707 26.7431 47.9913 28.2199 45.9473C28.1075 45.9473 25.7211 46.4004 22.7676 45.8332Z" fill="#009245"/>
<path d="M29.3547 20.4999C29.3547 20.4999 26.9684 19.9326 25.2651 20.1592C17.5438 21.1894 14.1778 30.9221 18.4484 36.9727C19.8127 38.9042 20.4941 39.2449 20.4941 39.2449C20.4941 39.2449 19.0173 37.1992 18.5625 36.0631C18.1077 34.927 17.3123 32.7689 17.8812 29.9278C18.4663 27.0036 20.3653 23.8512 22.9929 22.3173C24.9537 21.1731 27.1282 20.7574 29.3547 20.4999Z" fill="#39B54A"/>
<path d="M22.1992 23.3397V40.7204L24.2449 40.8345V27.8841L31.6288 40.7204H33.6728V23.2256H31.174L31.2881 36.1776L23.9026 23.2256L22.1992 23.3397Z" fill="#009245"/>
<path d="M45.2598 27.0888L49.576 40.7205H52.4171L56.7333 27.0888H54.3486L51.1669 38.1076L47.8727 27.0888H45.2598Z" fill="#009245"/>
<path d="M57.9824 27.0888V40.7205L60.4796 40.6846L60.4698 27.0431L57.9824 27.0888Z" fill="#009245"/>
<path d="M59.2338 22.431C59.9868 22.431 60.5965 23.0406 60.5965 23.7936C60.5965 24.5467 59.9868 25.158 59.2338 25.158C58.4807 25.158 57.8711 24.5467 57.8711 23.7936C57.8711 23.0406 58.4807 22.431 59.2338 22.431Z" fill="#009245"/>
<path d="M69.7956 34.1319C69.6815 36.8589 69.0002 37.3121 68.5454 37.6544C68.0923 37.995 66.842 38.3357 65.7059 37.6544C64.5698 36.9714 64.4557 35.3821 64.4557 35.3821C64.4557 35.3821 64.1151 33.7913 64.3433 32.0863C64.4557 31.1784 64.7964 29.9282 65.5918 29.2468C66.0466 28.792 66.6155 28.792 66.9561 28.792C67.2968 28.792 68.2047 28.792 68.8861 29.5875C69.1143 29.7016 69.3408 30.1564 69.569 30.8377C69.6815 31.1784 69.9097 32.3145 69.7956 34.1319ZM72.4085 27.2028H70.8176C70.7051 27.0887 70.2504 27.4294 70.3628 28.5655C70.3628 28.5655 69.4549 26.748 66.842 26.8621C64.2292 26.9746 63.3196 28.3389 62.7524 29.3609C62.1835 30.3829 61.8428 31.6331 61.8428 33.2224C61.7304 34.8133 62.1835 37.995 63.3196 38.9029C63.3196 38.9029 64.1151 39.9249 66.6155 39.9249C69.1143 39.9249 69.6815 38.4482 69.6815 38.4482L69.569 40.9486C69.569 40.9486 69.1143 42.4254 67.9782 42.766C66.842 43.1067 65.9325 42.8801 64.9105 42.766C63.7744 42.6519 62.7524 41.9706 62.4117 41.8565V43.9021C62.4117 43.9021 64.0026 44.5835 65.4794 44.6976C65.4794 44.6976 68.0923 44.8101 69.2267 44.3569C70.3628 44.0146 71.8413 42.6519 72.0678 41.5158C72.2944 40.3797 72.1819 27.77 72.1819 27.77C72.1819 27.77 72.1819 27.5435 72.4085 27.2028Z" fill="#009245"/>
<path d="M87.0381 24.1465L85.9297 28.0324L83.7406 27.9558L83.7324 28.73H85.9981V37.5907C85.9981 37.5907 85.7601 40.3014 87.5205 40.8344C87.5205 40.8344 88.7756 41.2729 90.3616 40.8344C90.3616 40.8344 91.2695 40.6079 91.2695 40.3797V38.4497C91.2695 38.4497 90.7023 39.2435 89.338 39.3576C89.338 39.3576 87.9753 39.2435 87.9753 37.7668V28.7936H90.4741C90.4741 28.7936 91.1554 28.7936 91.2695 28.3388C91.3836 27.77 91.2695 27.0886 91.2695 27.0886H87.9753V24.1351L87.0381 24.1465Z" fill="#009245"/>
<path d="M93.127 27.0945L93.1726 40.5729L95.2508 40.6072L95.1775 27.0831L93.127 27.0945Z" fill="#009245"/>
<path d="M93.8803 22.3174C94.6333 22.3174 95.2429 22.9271 95.2429 23.6801C95.2429 24.4332 94.6333 25.0444 93.8803 25.0444C93.1272 25.0444 92.5176 24.4332 92.5176 23.6801C92.5176 22.9271 93.1272 22.3174 93.8803 22.3174Z" fill="#009245"/>
<path d="M108.992 27.0888H109.788C109.788 27.0888 110.81 26.8622 110.81 29.2469C110.81 29.2469 111.946 26.7481 114.445 26.8622C116.945 26.8622 118.422 27.656 118.875 29.4751C119.33 31.2925 119.103 40.4939 119.103 40.4939H116.604V30.6112C116.604 30.6112 116.604 28.4515 114.445 28.6797C112.401 28.9062 111.832 30.0423 111.379 30.6112V40.4939H108.992V27.0888Z" fill="#009245"/>
<path d="M127.508 38.79H123.873V32.4281L127.622 32.5422C130.12 32.7688 130.006 35.3816 130.006 35.3816C130.006 38.6759 127.508 38.79 127.508 38.79ZM123.873 24.9301H127.508C129.894 25.1583 129.78 27.543 129.78 27.543C129.78 30.4965 127.393 30.6106 127.393 30.6106H123.873V24.9301ZM129.325 31.4061C129.325 31.4061 132.393 30.9513 132.393 27.4305C132.393 23.9081 129.439 23.3392 127.848 23.3392C126.145 23.2267 121.26 23.2267 121.26 23.2267V40.3809H128.189C128.189 40.3809 132.847 40.3809 132.847 35.7223C132.847 35.7223 133.074 31.7467 129.325 31.4061Z" fill="#C1272D"/>
<path d="M139.777 38.676H136.937V24.9302H139.777C139.777 24.9302 143.526 25.0443 143.64 31.5187C143.752 39.0167 139.777 38.676 139.777 38.676ZM140.003 23.1128H134.324V40.3794H140.572C140.572 40.3794 146.365 40.6076 146.365 31.4062C146.365 22.8846 140.003 23.1128 140.003 23.1128Z" fill="#C1272D"/>
<path d="M101.608 39.0169C98.8813 38.6763 98.9954 33.5646 98.9954 33.5646C98.7689 28.2247 101.835 28.4513 101.835 28.4513C104.107 28.5654 105.017 30.7235 104.903 33.5646C104.788 36.404 104.448 39.3576 101.608 39.0169ZM101.835 26.6338C101.835 26.6338 96.2684 26.2932 96.3825 33.5646C96.3825 33.5646 95.8153 40.8344 102.063 40.8344C102.063 40.8344 107.401 41.0626 107.401 33.9053C107.401 26.7479 101.835 26.6338 101.835 26.6338Z" fill="#009245"/>
<path d="M80.9305 35.8362C80.9305 35.8362 80.8164 37.1989 79.6802 38.335C79.6802 38.335 78.091 39.6993 76.2719 38.335C76.2719 38.335 75.1374 36.7457 76.2719 35.1549C76.2719 35.1549 76.6142 34.4735 78.7723 34.1328L80.9305 33.9046V35.8362ZM83.2027 29.9291C82.7479 28.9071 81.9525 28.1116 81.9525 28.1116C80.4757 26.9755 79.5678 26.8614 77.7503 26.8614C75.9312 26.8614 74.342 27.4303 74.342 27.4303V29.4743C74.342 29.4743 75.8188 28.3382 77.5221 28.6789C78.9989 28.9071 80.5898 28.9071 80.8164 30.2697C81.0446 31.6324 80.9305 32.6561 80.9305 32.6561C80.9305 32.6561 77.5221 32.2013 75.7047 33.2233C73.8872 34.1328 73.3184 35.3814 73.3184 37.4271C73.3184 39.4711 75.0233 40.3806 75.5906 40.7213C76.1594 41.062 77.9769 41.062 79.2271 40.7213C80.4757 40.4947 81.3852 38.7898 81.3852 38.7898C81.4977 39.9259 81.7259 40.8354 81.7259 40.8354H83.4292V31.52C83.4292 30.4963 83.2027 29.9291 83.2027 29.9291Z" fill="#009245"/>
<path d="M42.5332 35.9496C42.5332 35.9496 42.4191 37.3123 41.2829 38.4484C41.2829 38.4484 39.6937 39.8127 37.8746 38.4484C37.8746 38.4484 36.7401 36.9716 37.8746 35.2683C37.8746 35.2683 38.2169 34.5869 40.375 34.2463L42.5332 34.0181V35.9496ZM44.9195 30.1566C44.4647 29.0205 43.6693 28.2251 43.6693 28.2251C42.1925 27.2014 41.2829 26.9748 39.4655 26.9748C37.648 26.9748 36.0572 27.5437 36.0572 27.5437V29.5877C36.0572 29.5877 37.5339 28.5657 39.2389 28.9064C40.7157 29.0205 42.3066 29.0205 42.5332 30.3832C42.7597 31.7459 42.6473 32.7695 42.6473 32.7695C42.6473 32.7695 39.2389 32.3147 37.4215 33.3367C35.604 34.3587 35.0352 35.4949 35.0352 37.5405C35.0352 39.5845 36.7401 40.4941 37.3074 40.8347C37.8746 41.1754 39.6937 41.0613 40.9423 40.8347C42.1925 40.6065 43.1004 38.9032 43.1004 38.9032C43.2145 40.0393 43.4427 40.9488 43.4427 40.9488H45.146V31.6334C45.146 30.7238 44.9195 30.1566 44.9195 30.1566Z" fill="#009245"/>
<path d="M56.7341 27.0887L58.5629 27.0773L58.5972 28.986L55.8359 29.0203L56.7341 27.0887Z" fill="#009245"/>
<path d="M91.2681 27.0889L93.1263 27.0938L93.1361 28.7482L90.4727 28.7922L91.2681 27.0889Z" fill="#009245"/>
<path d="M83.7383 27.9551L87.0358 24.1458L85.9274 28.0317L83.7383 27.9551Z" fill="#009245"/>
<path d="M35.8997 49.7812L36.0741 49.2645H38.6153L38.8027 49.7812H35.8997ZM35.0293 50.9092L37.0733 46.3941H37.7123L39.7644 50.9092H39.0864L37.2608 46.7559H37.5183L35.6927 50.9092H35.0293Z" fill="#808080"/>
<path d="M43.0581 50.9487C42.7744 50.9487 42.5055 50.9096 42.248 50.833C41.992 50.7548 41.7916 50.6602 41.6465 50.5494L41.904 50.0588C42.0507 50.1582 42.23 50.2413 42.4452 50.3098C42.6603 50.3799 42.8804 50.4141 43.1037 50.4141C43.3922 50.4141 43.5992 50.3733 43.7247 50.2902C43.8519 50.2087 43.9154 50.0946 43.9154 49.9495C43.9154 49.842 43.878 49.7572 43.7997 49.6969C43.7231 49.6366 43.6204 49.5926 43.4933 49.5616C43.3661 49.5323 43.226 49.5046 43.0711 49.4817C42.9163 49.4573 42.7614 49.4279 42.6066 49.3905C42.4517 49.3546 42.3099 49.3024 42.1811 49.2356C42.0524 49.1688 41.948 49.0775 41.8714 48.9585C41.7932 48.8411 41.7557 48.683 41.7557 48.4842C41.7557 48.2788 41.8144 48.0979 41.9301 47.943C42.0458 47.7882 42.2105 47.6692 42.4224 47.5844C42.6359 47.5013 42.8885 47.4589 43.1819 47.4589C43.4053 47.4589 43.6318 47.4866 43.8617 47.5404C44.0915 47.5926 44.2789 47.6692 44.4256 47.7686L44.1616 48.2592C44.0067 48.1549 43.8454 48.0848 43.6775 48.0457C43.5096 48.0082 43.3417 47.9887 43.1738 47.9887C42.9032 47.9887 42.7011 48.0327 42.5691 48.1207C42.4338 48.2087 42.3686 48.3212 42.3686 48.4581C42.3686 48.5755 42.4077 48.6651 42.4876 48.727C42.5674 48.789 42.6701 48.8379 42.7973 48.8721C42.9244 48.9063 43.0646 48.9357 43.2194 48.9585C43.3743 48.983 43.5291 49.0123 43.684 49.0498C43.8388 49.0856 43.979 49.1362 44.1062 49.2014C44.2333 49.2649 44.336 49.3562 44.4159 49.472C44.4957 49.5877 44.5365 49.7425 44.5365 49.9365C44.5365 50.1419 44.4745 50.3212 44.3555 50.4711C44.2333 50.6227 44.0638 50.7385 43.8454 50.8232C43.6269 50.9064 43.3645 50.9487 43.0581 50.9487Z" fill="#808080"/>
<path d="M45.3084 47.4918H45.9278V50.9099H45.3084V47.4918ZM45.6181 46.8333C45.4991 46.8333 45.3981 46.7942 45.3182 46.7176C45.24 46.6393 45.1992 46.5448 45.1992 46.4339C45.1992 46.3166 45.24 46.2204 45.3182 46.1438C45.3981 46.0656 45.4991 46.0264 45.6181 46.0264C45.7387 46.0264 45.8398 46.0656 45.918 46.1405C45.9979 46.2155 46.037 46.3084 46.037 46.4209C46.037 46.5366 45.9995 46.6344 45.9213 46.7143C45.8447 46.7942 45.742 46.8333 45.6181 46.8333Z" fill="#808080"/>
<path d="M48.0893 50.9487C47.8057 50.9487 47.5367 50.9096 47.2792 50.833C47.0233 50.7548 46.8228 50.6602 46.6777 50.5494L46.9353 50.0588C47.082 50.1582 47.2613 50.2413 47.4764 50.3098C47.6916 50.3799 47.9116 50.4141 48.135 50.4141C48.4235 50.4141 48.6305 50.3733 48.756 50.2902C48.8831 50.2087 48.9467 50.0946 48.9467 49.9495C48.9467 49.842 48.9092 49.7572 48.831 49.6969C48.7544 49.6366 48.6517 49.5926 48.5245 49.5616C48.3974 49.5323 48.2572 49.5046 48.1024 49.4817C47.9475 49.4573 47.7927 49.4279 47.6378 49.3905C47.483 49.3546 47.3411 49.3024 47.2124 49.2356C47.0836 49.1688 46.9793 49.0775 46.9027 48.9585C46.8244 48.8411 46.7869 48.683 46.7869 48.4842C46.7869 48.2788 46.8456 48.0979 46.9614 47.943C47.0771 47.7882 47.2417 47.6692 47.4536 47.5844C47.6671 47.5013 47.9198 47.4589 48.2132 47.4589C48.4365 47.4589 48.6631 47.4866 48.8929 47.5404C49.1227 47.5926 49.3102 47.6692 49.4569 47.7686L49.1928 48.2592C49.038 48.1549 48.8766 48.0848 48.7087 48.0457C48.5408 48.0082 48.3729 47.9887 48.205 47.9887C47.9345 47.9887 47.7323 48.0327 47.6003 48.1207C47.465 48.2087 47.3998 48.3212 47.3998 48.4581C47.3998 48.5755 47.4389 48.6651 47.5188 48.727C47.5987 48.789 47.7014 48.8379 47.8285 48.8721C47.9557 48.9063 48.0958 48.9357 48.2507 48.9585C48.4055 48.983 48.5604 49.0123 48.7152 49.0498C48.8701 49.0856 49.0103 49.1362 49.1374 49.2014C49.2645 49.2649 49.3672 49.3562 49.4471 49.472C49.527 49.5877 49.5677 49.7425 49.5677 49.9365C49.5677 50.1419 49.5058 50.3212 49.3868 50.4711C49.2645 50.6227 49.095 50.7385 48.8766 50.8232C48.6582 50.9064 48.3958 50.9487 48.0893 50.9487Z" fill="#808080"/>
<path d="M51.5138 50.9487C51.1699 50.9487 50.9026 50.8558 50.7151 50.6716C50.5244 50.4858 50.4299 50.2218 50.4299 49.8778V46.7433H51.0493V49.8517C51.0493 50.0376 51.0949 50.1794 51.1878 50.2772C51.2807 50.3766 51.4128 50.4271 51.5856 50.4271C51.7779 50.4271 51.9393 50.3733 52.0697 50.2641L52.262 50.7091C52.1675 50.7923 52.055 50.8526 51.923 50.8901C51.7926 50.9292 51.6556 50.9487 51.5138 50.9487ZM49.8496 47.4915H52.0305V48.0017H49.8496V47.4915Z" fill="#808080"/>
<path d="M54.4187 50.9487C54.0536 50.9487 53.7309 50.8738 53.4538 50.7222C53.1767 50.5722 52.9615 50.3668 52.8083 50.1028C52.6567 49.842 52.5801 49.5404 52.5801 49.2014C52.5801 48.8607 52.6534 48.5608 52.8034 48.2967C52.9501 48.0359 53.1555 47.8305 53.4163 47.6822C53.6754 47.5339 53.9688 47.4589 54.2948 47.4589C54.6274 47.4589 54.9191 47.5323 55.1734 47.679C55.4261 47.824 55.6249 48.0294 55.77 48.2951C55.9134 48.5592 55.9851 48.8672 55.9851 49.2209C55.9851 49.2454 55.9851 49.2764 55.9835 49.3106C55.9803 49.3448 55.977 49.3774 55.9737 49.4068H53.0642V48.9618H55.651L55.3983 49.1166C55.4032 48.8966 55.3576 48.701 55.2647 48.5298C55.1685 48.3587 55.0381 48.2234 54.8735 48.1272C54.7072 48.0294 54.5149 47.9821 54.2948 47.9821C54.0813 47.9821 53.889 48.0294 53.7211 48.1272C53.5532 48.2234 53.4228 48.3587 53.3282 48.5331C53.2337 48.7075 53.1864 48.9063 53.1864 49.1297V49.2323C53.1864 49.4605 53.2386 49.6643 53.3445 49.842C53.4489 50.0213 53.5972 50.1598 53.7863 50.2592C53.9754 50.357 54.1921 50.4076 54.4383 50.4076C54.6404 50.4076 54.8246 50.3733 54.9892 50.3033C55.1538 50.2348 55.2989 50.1321 55.4244 49.9936L55.7667 50.3945C55.6119 50.5755 55.4195 50.7124 55.1897 50.8069C54.9582 50.9015 54.7023 50.9487 54.4187 50.9487Z" fill="#808080"/>
<path d="M56.8418 50.9099V47.4918H57.4351V48.4209L57.3764 48.1878C57.471 47.9515 57.6307 47.7705 57.854 47.6467C58.079 47.5211 58.3528 47.4592 58.6804 47.4592V48.059C58.6544 48.0542 58.6299 48.0525 58.6055 48.0525H58.5386C58.2077 48.0525 57.9453 48.152 57.7513 48.3492C57.5574 48.5464 57.4612 48.8333 57.4612 49.2066V50.9099H56.8418Z" fill="#808080"/>
<path d="M62.7123 50.9487C62.3651 50.9487 62.0538 50.8738 61.7799 50.7222C61.5077 50.5722 61.2926 50.3668 61.1393 50.1028C60.9845 49.842 60.9062 49.5404 60.9062 49.2014C60.9062 48.8607 60.9845 48.5608 61.1393 48.2967C61.2926 48.0359 61.5077 47.8305 61.7799 47.6822C62.0538 47.5339 62.3651 47.4589 62.7123 47.4589C63.022 47.4589 63.2975 47.5208 63.542 47.6431C63.7832 47.7653 63.9723 47.9479 64.1059 48.1875L63.6349 48.4907C63.5224 48.3228 63.3871 48.1989 63.2257 48.1207C63.0644 48.0408 62.8916 48.0017 62.7058 48.0017C62.4825 48.0017 62.282 48.0506 62.1059 48.1484C61.9299 48.2478 61.7913 48.3864 61.687 48.5657C61.5843 48.7433 61.5322 48.9552 61.5322 49.2014C61.5322 49.4459 61.5843 49.6594 61.687 49.8387C61.7913 50.0196 61.9299 50.1598 62.1059 50.2592C62.282 50.357 62.4825 50.4076 62.7058 50.4076C62.8916 50.4076 63.0644 50.3668 63.2257 50.2886C63.3871 50.2071 63.5224 50.0848 63.6349 49.9169L64.1059 50.2136C63.9723 50.45 63.7832 50.6309 63.542 50.758C63.2975 50.8852 63.022 50.9487 62.7123 50.9487Z" fill="#808080"/>
<path d="M66.319 50.4071C66.5391 50.4071 66.7347 50.3582 66.9107 50.2588C67.0835 50.1593 67.2204 50.0191 67.3198 49.8366C67.4176 49.654 67.4665 49.4421 67.4665 49.2009C67.4665 48.9564 67.4176 48.7445 67.3198 48.5652C67.2204 48.3875 67.0835 48.249 66.9107 48.1495C66.7347 48.0501 66.5391 48.0012 66.319 48.0012C66.1006 48.0012 65.9034 48.0501 65.7322 48.1495C65.5611 48.249 65.4225 48.3875 65.3198 48.5652C65.2171 48.7445 65.165 48.9564 65.165 49.2009C65.165 49.4421 65.2171 49.654 65.3198 49.8366C65.4225 50.0191 65.5611 50.1593 65.7322 50.2588C65.9034 50.3582 66.1006 50.4071 66.319 50.4071ZM66.319 50.9482C65.9751 50.9482 65.6703 50.8733 65.403 50.7233C65.1373 50.5717 64.9254 50.3647 64.7722 50.1006C64.6173 49.8366 64.5391 49.5367 64.5391 49.2009C64.5391 48.8618 64.6173 48.5603 64.7722 48.2979C64.9254 48.0354 65.1373 47.8301 65.403 47.6817C65.6703 47.5334 65.9751 47.46 66.319 47.46C66.6581 47.46 66.9629 47.5334 67.2318 47.6817C67.5008 47.8301 67.711 48.0338 67.8643 48.2946C68.0159 48.5554 68.0925 48.857 68.0925 49.2009C68.0925 49.5399 68.0159 49.8415 67.8643 50.1039C67.711 50.3663 67.5008 50.5717 67.2318 50.7233C66.9629 50.8733 66.6581 50.9482 66.319 50.9482Z" fill="#808080"/>
<path d="M70.7748 47.4592C71.0535 47.4592 71.2997 47.513 71.5132 47.6206C71.7267 47.7282 71.893 47.8912 72.0136 48.1112C72.1342 48.3296 72.1945 48.6067 72.1945 48.9425V50.9099H71.5735V49.0142C71.5735 48.6817 71.4936 48.4323 71.3323 48.2644C71.1709 48.0982 70.9443 48.0134 70.6526 48.0134C70.4325 48.0134 70.2418 48.0558 70.0788 48.1422C69.9142 48.2286 69.7887 48.3557 69.7006 48.5236C69.6126 48.6915 69.5686 48.9001 69.5686 49.1495V50.9099H68.9492V47.4918H69.5425V48.4144L69.4464 48.1683C69.5588 47.9449 69.73 47.7705 69.9631 47.6467C70.1945 47.5211 70.4651 47.4592 70.7748 47.4592Z" fill="#808080"/>
<path d="M74.8334 50.9487C74.4862 50.9487 74.1749 50.8738 73.901 50.7222C73.6288 50.5722 73.4137 50.3668 73.2604 50.1028C73.1056 49.842 73.0273 49.5404 73.0273 49.2014C73.0273 48.8607 73.1056 48.5608 73.2604 48.2967C73.4137 48.0359 73.6288 47.8305 73.901 47.6822C74.1749 47.5339 74.4862 47.4589 74.8334 47.4589C75.1431 47.4589 75.4186 47.5208 75.6631 47.6431C75.9043 47.7653 76.0934 47.9479 76.227 48.1875L75.756 48.4907C75.6435 48.3228 75.5082 48.1989 75.3468 48.1207C75.1855 48.0408 75.0127 48.0017 74.8269 48.0017C74.6036 48.0017 74.4031 48.0506 74.227 48.1484C74.051 48.2478 73.9124 48.3864 73.8081 48.5657C73.7054 48.7433 73.6533 48.9552 73.6533 49.2014C73.6533 49.4459 73.7054 49.6594 73.8081 49.8387C73.9124 50.0196 74.051 50.1598 74.227 50.2592C74.4031 50.357 74.6036 50.4076 74.8269 50.4076C75.0127 50.4076 75.1855 50.3668 75.3468 50.2886C75.5082 50.2071 75.6435 50.0848 75.756 49.9169L76.227 50.2136C76.0934 50.45 75.9043 50.6309 75.6631 50.758C75.4186 50.8852 75.1431 50.9487 74.8334 50.9487Z" fill="#808080"/>
<path d="M78.4949 50.9487C78.1298 50.9487 77.807 50.8738 77.5299 50.7222C77.2528 50.5722 77.0377 50.3668 76.8845 50.1028C76.7329 49.842 76.6562 49.5404 76.6562 49.2014C76.6562 48.8607 76.7296 48.5608 76.8796 48.2967C77.0263 48.0359 77.2316 47.8305 77.4924 47.6822C77.7516 47.5339 78.045 47.4589 78.371 47.4589C78.7035 47.4589 78.9953 47.5323 79.2496 47.679C79.5022 47.824 79.7011 48.0294 79.8462 48.2951C79.9896 48.5592 80.0613 48.8672 80.0613 49.2209C80.0613 49.2454 80.0613 49.2764 80.0597 49.3106C80.0564 49.3448 80.0532 49.3774 80.0499 49.4068H77.1404V48.9618H79.7272L79.4745 49.1166C79.4794 48.8966 79.4338 48.701 79.3409 48.5298C79.2447 48.3587 79.1143 48.2234 78.9497 48.1272C78.7834 48.0294 78.5911 47.9821 78.371 47.9821C78.1575 47.9821 77.9651 48.0294 77.7973 48.1272C77.6294 48.2234 77.499 48.3587 77.4044 48.5331C77.3099 48.7075 77.2626 48.9063 77.2626 49.1297V49.2323C77.2626 49.4605 77.3148 49.6643 77.4207 49.842C77.525 50.0213 77.6734 50.1598 77.8624 50.2592C78.0515 50.357 78.2683 50.4076 78.5144 50.4076C78.7166 50.4076 78.9008 50.3733 79.0654 50.3033C79.23 50.2348 79.3751 50.1321 79.5006 49.9936L79.8429 50.3945C79.688 50.5755 79.4957 50.7124 79.2659 50.8069C79.0344 50.9015 78.7785 50.9487 78.4949 50.9487Z" fill="#808080"/>
<path d="M80.9219 50.9099V47.4918H81.5152V48.4209L81.4565 48.1878C81.5511 47.9515 81.7108 47.7705 81.9341 47.6467C82.159 47.5211 82.4329 47.4592 82.7605 47.4592V48.059C82.7344 48.0542 82.71 48.0525 82.6855 48.0525H82.6187C82.2878 48.0525 82.0254 48.152 81.8314 48.3492C81.6374 48.5464 81.5413 48.8333 81.5413 49.2066V50.9099H80.9219Z" fill="#808080"/>
<path d="M85.349 47.4592C85.6278 47.4592 85.8739 47.513 86.0874 47.6206C86.301 47.7282 86.4672 47.8912 86.5878 48.1112C86.7085 48.3296 86.7688 48.6067 86.7688 48.9425V50.9099H86.1477V49.0142C86.1477 48.6817 86.0679 48.4323 85.9065 48.2644C85.7451 48.0982 85.5186 48.0134 85.2268 48.0134C85.0067 48.0134 84.816 48.0558 84.653 48.1422C84.4884 48.2286 84.3629 48.3557 84.2749 48.5236C84.1868 48.6915 84.1428 48.9001 84.1428 49.1495V50.9099H83.5234V47.4918H84.1168V48.4144L84.0206 48.1683C84.1331 47.9449 84.3042 47.7705 84.5373 47.6467C84.7688 47.5211 85.0393 47.4592 85.349 47.4592Z" fill="#808080"/>
<path d="M91.1139 50.4071C91.334 50.4071 91.5296 50.3582 91.7056 50.2588C91.8784 50.1593 92.0153 50.0191 92.1148 49.8366C92.2126 49.654 92.2615 49.4421 92.2615 49.2009C92.2615 48.9564 92.2126 48.7445 92.1148 48.5652C92.0153 48.3875 91.8784 48.249 91.7056 48.1495C91.5296 48.0501 91.334 48.0012 91.1139 48.0012C90.8955 48.0012 90.6983 48.0501 90.5271 48.1495C90.356 48.249 90.2174 48.3875 90.1148 48.5652C90.0121 48.7445 89.9599 48.9564 89.9599 49.2009C89.9599 49.4421 90.0121 49.654 90.1148 49.8366C90.2174 50.0191 90.356 50.1593 90.5271 50.2588C90.6983 50.3582 90.8955 50.4071 91.1139 50.4071ZM91.1139 50.9482C90.77 50.9482 90.4652 50.8733 90.1979 50.7233C89.9322 50.5717 89.7203 50.3647 89.5671 50.1006C89.4122 49.8366 89.334 49.5367 89.334 49.2009C89.334 48.8618 89.4122 48.5603 89.5671 48.2979C89.7203 48.0354 89.9322 47.8301 90.1979 47.6817C90.4652 47.5334 90.77 47.46 91.1139 47.46C91.453 47.46 91.7578 47.5334 92.0267 47.6817C92.2957 47.8301 92.506 48.0338 92.6592 48.2946C92.8108 48.5554 92.8874 48.857 92.8874 49.2009C92.8874 49.5399 92.8108 49.8415 92.6592 50.1039C92.506 50.3663 92.2957 50.5717 92.0267 50.7233C91.7578 50.8733 91.453 50.9482 91.1139 50.9482Z" fill="#808080"/>
<path d="M93.8361 50.9099V47.1886C93.8361 46.8528 93.9339 46.5855 94.1295 46.385C94.3251 46.1845 94.6039 46.0851 94.9657 46.0851C95.0978 46.0851 95.2265 46.1014 95.3488 46.134C95.471 46.165 95.5753 46.2155 95.6617 46.2856L95.4743 46.7567C95.4107 46.7045 95.3374 46.6654 95.2559 46.6361C95.1727 46.6083 95.088 46.5953 94.9967 46.5953C94.8158 46.5953 94.6788 46.6458 94.5843 46.7469C94.4898 46.848 94.4425 46.9963 94.4425 47.1951V47.6532L94.4555 47.9368V50.9099H93.8361ZM93.2559 47.4918H95.4368V48.002H93.2559V47.4918Z" fill="#808080"/>
<path d="M98.7434 50.1229H99.9626C100.233 50.1229 100.439 50.0789 100.577 49.9908C100.717 49.9028 100.789 49.7626 100.789 49.5687C100.789 49.3796 100.717 49.2378 100.577 49.1449C100.439 49.0536 100.233 49.0063 99.9626 49.0063H98.6651V48.2451H99.7817C100.036 48.2451 100.23 48.2027 100.365 48.1131C100.501 48.0251 100.569 47.8914 100.569 47.7105C100.569 47.5344 100.501 47.4024 100.365 47.3144C100.23 47.2264 100.036 47.1823 99.7817 47.1823H98.7434V50.1229ZM97.7051 50.9102V46.3951H99.9105C100.478 46.3951 100.905 46.5026 101.19 46.7178C101.477 46.933 101.62 47.2166 101.62 47.5687C101.62 47.805 101.562 48.0104 101.446 48.1848C101.33 48.3592 101.17 48.4929 100.968 48.5874C100.766 48.6819 100.535 48.7292 100.272 48.7292L100.395 48.4652C100.678 48.4652 100.929 48.5108 101.149 48.6037C101.368 48.6966 101.539 48.8335 101.663 49.0128C101.785 49.1938 101.845 49.4154 101.845 49.6779C101.845 50.0642 101.694 50.3674 101.389 50.5842C101.082 50.8009 100.634 50.9102 100.039 50.9102H97.7051Z" fill="#808080"/>
<path d="M103.472 50.9875C103.166 50.9875 102.887 50.9305 102.63 50.8164C102.375 50.7023 102.165 50.5409 102.002 50.329L102.582 49.633C102.706 49.796 102.838 49.9199 102.975 50.003C103.112 50.0878 103.262 50.1302 103.42 50.1302C103.847 50.1302 104.059 49.8808 104.059 49.3804V47.2337H102.471V46.3942H105.097V49.3233C105.097 49.8824 104.96 50.2997 104.685 50.5752C104.409 50.8506 104.005 50.9875 103.472 50.9875Z" fill="#808080"/>
<path d="M106.129 46.3948H107.174V50.9099H106.129V46.3948Z" fill="#808080"/>
<path d="M109.18 50.9099V47.2457H107.734V46.3948H111.669V47.2457H110.225V50.9099H109.18Z" fill="#808080"/>
<path d="M117.106 50.278V48.5812H118.062V50.4133L117.106 50.278ZM116.236 50.9871C115.879 50.9871 115.551 50.93 115.252 50.8175C114.953 50.7018 114.692 50.5404 114.472 50.3302C114.251 50.1199 114.078 49.8721 113.956 49.5885C113.833 49.3049 113.771 48.9919 113.771 48.6529C113.771 48.3139 113.833 48.0009 113.956 47.7173C114.078 47.4337 114.251 47.1859 114.474 46.9756C114.697 46.7654 114.96 46.6024 115.263 46.4883C115.563 46.3742 115.894 46.3171 116.256 46.3171C116.655 46.3171 117.015 46.3839 117.336 46.5176C117.656 46.6513 117.926 46.8436 118.145 47.0979L117.473 47.7173C117.312 47.5461 117.133 47.4174 116.939 47.3326C116.745 47.2495 116.534 47.2071 116.308 47.2071C116.088 47.2071 115.887 47.2413 115.708 47.3114C115.527 47.3799 115.371 47.4793 115.24 47.6081C115.108 47.7368 115.007 47.8901 114.937 48.0661C114.865 48.2421 114.829 48.4377 114.829 48.6529C114.829 48.8632 114.865 49.0571 114.937 49.2332C115.007 49.4092 115.108 49.5624 115.24 49.6945C115.371 49.8249 115.525 49.9259 115.703 49.9944C115.882 50.0629 116.078 50.0971 116.295 50.0971C116.5 50.0971 116.701 50.0645 116.896 49.9977C117.092 49.9308 117.283 49.8184 117.468 49.6586L118.062 50.4133C117.817 50.5991 117.532 50.7409 117.208 50.8387C116.882 50.9382 116.559 50.9871 116.236 50.9871Z" fill="#808080"/>
<path d="M118.957 50.9099V47.4396H119.917V48.4209L119.782 48.1357C119.886 47.8912 120.051 47.7053 120.279 47.5782C120.507 47.4511 120.784 47.3875 121.112 47.3875V48.3166C121.068 48.3133 121.03 48.3101 120.995 48.3068C120.96 48.3052 120.924 48.3035 120.885 48.3035C120.61 48.3035 120.387 48.3818 120.217 48.5399C120.048 48.6964 119.963 48.9409 119.963 49.2718V50.9099H118.957Z" fill="#808080"/>
<path d="M123.331 50.1357C123.498 50.1357 123.65 50.0966 123.782 50.02C123.916 49.9434 124.02 49.8326 124.098 49.6875C124.177 49.5441 124.214 49.3729 124.214 49.1757C124.214 48.9736 124.177 48.8008 124.098 48.659C124.02 48.5172 123.916 48.4079 123.782 48.3297C123.65 48.2515 123.498 48.214 123.331 48.214C123.163 48.214 123.013 48.2515 122.879 48.3297C122.745 48.4079 122.639 48.5172 122.56 48.659C122.48 48.8008 122.441 48.9736 122.441 49.1757C122.441 49.3729 122.48 49.5441 122.56 49.6875C122.639 49.8326 122.745 49.9434 122.879 50.02C123.013 50.0966 123.163 50.1357 123.331 50.1357ZM123.331 50.9622C122.961 50.9622 122.633 50.8839 122.348 50.7291C122.061 50.5742 121.836 50.3623 121.67 50.0934C121.505 49.826 121.422 49.5196 121.422 49.1757C121.422 48.8269 121.505 48.5172 121.67 48.2498C121.836 47.9809 122.061 47.769 122.348 47.6174C122.633 47.4642 122.961 47.3876 123.331 47.3876C123.696 47.3876 124.023 47.4642 124.31 47.6174C124.6 47.769 124.825 47.9793 124.988 48.2466C125.151 48.5123 125.233 48.822 125.233 49.1757C125.233 49.5196 125.151 49.826 124.988 50.0934C124.825 50.3623 124.6 50.5742 124.31 50.7291C124.023 50.8839 123.696 50.9622 123.331 50.9622Z" fill="#808080"/>
<path d="M127.37 50.9617C127.082 50.9617 126.824 50.9062 126.599 50.7938C126.372 50.6813 126.198 50.5118 126.073 50.282C125.949 50.0505 125.887 49.7571 125.887 49.4001V47.4392H126.892V49.2518C126.892 49.5403 126.954 49.7522 127.077 49.8875C127.199 50.0228 127.372 50.0912 127.595 50.0912C127.75 50.0912 127.888 50.057 128.009 49.9902C128.128 49.925 128.223 49.8207 128.293 49.6805C128.361 49.5419 128.395 49.3659 128.395 49.1556V47.4392H129.403V50.9095H128.447V49.956L128.622 50.2331C128.504 50.4743 128.335 50.6552 128.108 50.7775C127.882 50.9014 127.636 50.9617 127.37 50.9617Z" fill="#808080"/>
<path d="M132.216 50.136C132.382 50.136 132.532 50.0969 132.664 50.0203C132.794 49.9437 132.9 49.8328 132.98 49.6878C133.058 49.5443 133.099 49.3732 133.099 49.1759C133.099 48.9738 133.058 48.801 132.98 48.6592C132.9 48.5174 132.794 48.4082 132.664 48.33C132.532 48.2517 132.382 48.2142 132.216 48.2142C132.048 48.2142 131.896 48.2517 131.764 48.33C131.63 48.4082 131.526 48.5174 131.448 48.6592C131.37 48.801 131.332 48.9738 131.332 49.1759C131.332 49.3732 131.37 49.5443 131.448 49.6878C131.526 49.8328 131.63 49.9437 131.764 50.0203C131.896 50.0969 132.048 50.136 132.216 50.136ZM132.39 50.9624C132.097 50.9624 131.841 50.8972 131.622 50.7685C131.402 50.6397 131.231 50.4425 131.109 50.1784C130.987 49.9143 130.926 49.5786 130.926 49.1759C130.926 48.7668 130.983 48.431 131.099 48.1686C131.215 47.9062 131.383 47.7106 131.603 47.5818C131.821 47.453 132.084 47.3878 132.39 47.3878C132.716 47.3878 133.009 47.4628 133.269 47.6111C133.529 47.7595 133.736 47.9665 133.89 48.2338C134.041 48.4995 134.118 48.8141 134.118 49.1759C134.118 49.5411 134.041 49.8557 133.89 50.123C133.736 50.3903 133.529 50.5957 133.269 50.7424C133.009 50.8891 132.716 50.9624 132.39 50.9624ZM130.338 52.1621V47.44H131.3V48.149L131.28 49.1808L131.345 50.2077V52.1621H130.338Z" fill="#808080"/>
</svg>
