<svg width="79" height="79" viewBox="0 0 79 79" fill="none" xmlns="http://www.w3.org/2000/svg">
<path d="M66.6562 0H12.3438C5.52649 0 0 5.52649 0 12.3438V66.6562C0 73.4735 5.52649 79 12.3438 79H66.6562C73.4735 79 79 73.4735 79 66.6562V12.3438C79 5.52649 73.4735 0 66.6562 0Z" fill="#25D366"/>
<path fill-rule="evenodd" clip-rule="evenodd" d="M53.325 25.4281C49.6219 21.725 44.6844 19.75 39.5 19.75C28.6375 19.75 19.75 28.6375 19.75 39.5C19.75 42.9562 20.7375 46.4125 22.4656 49.375L19.75 59.25L30.1188 56.5344C33.0813 58.0156 36.2906 59.0031 39.5 59.0031C50.3625 59.0031 59.25 50.1156 59.25 39.2531C59.25 34.0687 57.0281 29.1313 53.325 25.4281ZM39.5 55.7938C36.5375 55.7938 33.575 55.0531 31.1063 53.5719L30.6125 53.325L24.4406 55.0531L26.1688 49.1281L25.675 48.3875C23.9469 45.6719 23.2062 42.7094 23.2062 39.7469C23.2062 30.8594 30.6125 23.4531 39.5 23.4531C43.9438 23.4531 47.8938 25.1812 51.1032 28.1437C54.3125 31.3531 55.7938 35.3031 55.7938 39.7469C55.7938 48.3875 48.6344 55.7938 39.5 55.7938ZM48.3875 43.45C47.8938 43.2031 45.425 41.9688 44.9313 41.9688C44.4375 41.7219 44.1906 41.7219 43.9437 42.2156C43.6968 42.7094 42.7094 43.6969 42.4625 44.1906C42.2157 44.4375 41.9687 44.4375 41.475 44.4375C40.9812 44.1906 39.5 43.6969 37.525 41.9688C36.0438 40.7344 35.0563 39.0063 34.8094 38.5125C34.5625 38.0188 34.8094 37.7719 35.0563 37.525C35.3032 37.2781 35.55 37.0312 35.7969 36.7844C36.0438 36.5375 36.0438 36.2906 36.2907 36.0438C36.5375 35.7969 36.2907 35.55 36.2907 35.3031C36.2907 35.0563 35.3031 32.5875 34.8094 31.6C34.5625 30.8594 34.0688 30.8594 33.8219 30.8594C33.575 30.8594 33.3281 30.8594 32.8343 30.8594C32.5875 30.8594 32.0937 30.8594 31.6 31.3531C31.1062 31.8469 29.8719 33.0812 29.8719 35.55C29.8719 38.0187 31.6 40.2406 31.8469 40.7344C32.0937 40.9813 35.3031 46.1656 40.2406 48.1406C44.4375 49.8687 45.1782 49.375 46.1657 49.375C47.1532 49.375 49.1281 48.1406 49.375 47.1531C49.8687 45.9188 49.8688 44.9313 49.6219 44.9313C49.375 43.6969 48.8813 43.6969 48.3875 43.45Z" fill="white"/>
</svg>
